<?xml version="1.0" encoding="iso-8859-1"?>
<!-- Generator: Adobe Illustrator 16.0.0, SVG Export Plug-In . SVG Version: 6.00 Build 0)  -->
<!DOCTYPE svg PUBLIC "-//W3C//DTD SVG 1.1//EN" "http://www.w3.org/Graphics/SVG/1.1/DTD/svg11.dtd">
<svg version="1.1" id="Capa_1" xmlns="http://www.w3.org/2000/svg" xmlns:xlink="http://www.w3.org/1999/xlink" x="0px" y="0px"
	 width="98.428px" height="98.428px" viewBox="0 0 98.428 98.428" style="enable-background:new 0 0 98.428 98.428;"
	 xml:space="preserve">
<g>
	<g>
		<g>
			<path d="M30.552,36.748c3.52,9.104,10.066,15.087,18.659,15.087c8.136,0,15.185-5.759,18.663-15.087
				c3.654-0.34,5.568-3.866,6.28-8.024c0.849-4.971-0.934-7.395-4.08-7.938C69.003,9.111,65.647,0,49.211,0
				C32.845,0,29.419,9.111,28.349,20.786c-3.145,0.542-4.928,2.967-4.077,7.938C24.989,32.929,26.819,36.478,30.552,36.748z
				 M53.063,17.533c1.035,2.068,3.987,6.118,11.685,7.935c-0.724,11.983-7.031,20.451-15.537,20.451
				c-8.169,0-13.609-7.374-15.194-17.531C44.963,27.635,51.977,18.968,53.063,17.533z"/>
		</g>
		<g>
			<path d="M66.26,45.821C66.256,45.817,66.265,45.826,66.26,45.821c-4.391,5.733-10.365,9.134-17.049,9.134
				c-6.557,0-12.627-3.361-17.045-9.134C24.103,50.605,15.68,61.676,14.53,83.982c-0.205,3.943,2.444,7.324,5.916,7.554
				c0.125,0.01,6.794,0.349,6.794,0.349c4.147,4.707,12.683,6.543,22.122,6.543c10.016,0,17.874-2.195,21.826-6.543
				c0,0,6.668-0.339,6.792-0.349c3.473-0.229,6.12-3.61,5.918-7.55C82.751,61.824,74.597,50.789,66.26,45.821z"/>
		</g>
	</g>
</g>
<g>
</g>
<g>
</g>
<g>
</g>
<g>
</g>
<g>
</g>
<g>
</g>
<g>
</g>
<g>
</g>
<g>
</g>
<g>
</g>
<g>
</g>
<g>
</g>
<g>
</g>
<g>
</g>
<g>
</g>
</svg>
